<svg xmlns="http://www.w3.org/2000/svg" xmlns:xlink="http://www.w3.org/1999/xlink" width="500" zoomAndPan="magnify" viewBox="0 0 375 374.999991" height="500" preserveAspectRatio="xMidYMid meet" version="1.0"><defs><clipPath id="4b914f4ee6"><path d="M 45.765625 13.496094 L 329.265625 13.496094 L 329.265625 361.496094 L 45.765625 361.496094 Z M 45.765625 13.496094 " clip-rule="nonzero"/></clipPath></defs><g clip-path="url(#4b914f4ee6)"><path fill="#202759" d="M 320.089844 361.554688 L 45.957031 352.757812 L 62.097656 13.519531 L 329.070312 48.320312 Z M 320.089844 361.554688 " fill-opacity="1" fill-rule="nonzero"/></g><path fill="#fcb017" d="M 105.109375 84.53125 L 95.496094 290.542969 L 160.683594 290.542969 C 160.683594 290.542969 184.1875 194.945312 216.246094 194.945312 C 248.300781 194.945312 208.765625 290.542969 208.765625 290.542969 L 273.953125 290.542969 C 273.953125 290.542969 301.78125 84.53125 233.34375 84.53125 C 164.910156 84.53125 160.671875 154.574219 160.671875 187.539062 L 153.195312 187.539062 L 159.609375 84.53125 Z M 105.109375 84.53125 " fill-opacity="1" fill-rule="nonzero"/></svg>